<svg xmlns="http://www.w3.org/2000/svg" xmlns:xlink="http://www.w3.org/1999/xlink" width="500" zoomAndPan="magnify" viewBox="0 0 375 374.999991" height="500" preserveAspectRatio="xMidYMid meet" version="1.0"><defs><filter x="0%" y="0%" width="100%" height="100%" id="15dba6f7f2"><feColorMatrix values="0 0 0 0 1 0 0 0 0 1 0 0 0 0 1 0 0 0 1 0" color-interpolation-filters="sRGB"/></filter><g/><mask id="c5fd022511"><g filter="url(#15dba6f7f2)"><rect x="-37.5" width="450" fill="#000000" y="-37.499999" height="449.999989" fill-opacity="0.1"/></g></mask><clipPath id="c9051442ea"><path d="M 0.160156 0.519531 L 52.480469 0.519531 L 52.480469 95.320312 L 0.160156 95.320312 Z M 0.160156 0.519531 " clip-rule="nonzero"/></clipPath><clipPath id="f0b17b8cb8"><rect x="0" width="53" y="0" height="96"/></clipPath><mask id="328e5f61ac"><g filter="url(#15dba6f7f2)"><rect x="-37.5" width="450" fill="#000000" y="-37.499999" height="449.999989" fill-opacity="0.2"/></g></mask><clipPath id="fdfb947324"><path d="M 0 0.480469 L 48 0.480469 L 48 85.441406 L 0 85.441406 Z M 0 0.480469 " clip-rule="nonzero"/></clipPath><clipPath id="8c8a50c84d"><rect x="0" width="48" y="0" height="86"/></clipPath><mask id="3b17879844"><g filter="url(#15dba6f7f2)"><rect x="-37.5" width="450" fill="#000000" y="-37.499999" height="449.999989" fill-opacity="0.15"/></g></mask><clipPath id="018dfe4e7d"><path d="M 0.679688 0.078125 L 59.480469 0.078125 L 59.480469 33.441406 L 0.679688 33.441406 Z M 0.679688 0.078125 " clip-rule="nonzero"/></clipPath><clipPath id="175b3c3e86"><rect x="0" width="60" y="0" height="34"/></clipPath><clipPath id="6961ce3106"><path d="M 169 151 L 282.386719 151 L 282.386719 243 L 169 243 Z M 169 151 " clip-rule="nonzero"/></clipPath><mask id="fa39ccc00a"><g filter="url(#15dba6f7f2)"><rect x="-37.5" width="450" fill="#000000" y="-37.499999" height="449.999989" fill-opacity="0.15"/></g></mask><clipPath id="9a0ae9aa19"><path d="M 1 1 L 25.921875 1 L 25.921875 32.640625 L 1 32.640625 Z M 1 1 " clip-rule="nonzero"/></clipPath><clipPath id="6bde0b47f7"><rect x="0" width="26" y="0" height="33"/></clipPath><clipPath id="f6f81957fa"><path d="M 186 183 L 282.386719 183 L 282.386719 243 L 186 243 Z M 186 183 " clip-rule="nonzero"/></clipPath><mask id="d9f11f09b8"><g filter="url(#15dba6f7f2)"><rect x="-37.5" width="450" fill="#000000" y="-37.499999" height="449.999989" fill-opacity="0.1"/></g></mask><clipPath id="5c2ae1722f"><path d="M 0.71875 0.359375 L 96.386719 0.359375 L 96.386719 59.398438 L 0.71875 59.398438 Z M 0.71875 0.359375 " clip-rule="nonzero"/></clipPath><clipPath id="96b146a2be"><rect x="0" width="97" y="0" height="60"/></clipPath><mask id="6fe9383381"><g filter="url(#15dba6f7f2)"><rect x="-37.5" width="450" fill="#000000" y="-37.499999" height="449.999989" fill-opacity="0.15"/></g></mask><clipPath id="dbf76368ff"><path d="M 0 0.519531 L 43.921875 0.519531 L 43.921875 41 L 0 41 Z M 0 0.519531 " clip-rule="nonzero"/></clipPath><clipPath id="89ea1b148e"><rect x="0" width="44" y="0" height="42"/></clipPath><clipPath id="242e6122de"><path d="M 118 64.753906 L 242 64.753906 L 242 190 L 118 190 Z M 118 64.753906 " clip-rule="nonzero"/></clipPath><clipPath id="6b3de7bc98"><path d="M 152 64.753906 L 220 64.753906 L 220 109 L 152 109 Z M 152 64.753906 " clip-rule="nonzero"/></clipPath><mask id="006609e18f"><g filter="url(#15dba6f7f2)"><rect x="-37.5" width="450" fill="#000000" y="-37.499999" height="449.999989" fill-opacity="0.1"/></g></mask><clipPath id="8acb63ea90"><path d="M 0.640625 0.753906 L 67.359375 0.753906 L 67.359375 44.71875 L 0.640625 44.71875 Z M 0.640625 0.753906 " clip-rule="nonzero"/></clipPath><clipPath id="399c6e0d99"><rect x="0" width="68" y="0" height="45"/></clipPath><clipPath id="36497310ac"><path d="M 188 64.753906 L 241 64.753906 L 241 107 L 188 107 Z M 188 64.753906 " clip-rule="nonzero"/></clipPath><mask id="3ffa0154af"><g filter="url(#15dba6f7f2)"><rect x="-37.5" width="450" fill="#000000" y="-37.499999" height="449.999989" fill-opacity="0.1"/></g></mask><clipPath id="fc3bf30c9d"><path d="M 0.878906 0.753906 L 52.71875 0.753906 L 52.71875 42 L 0.878906 42 Z M 0.878906 0.753906 " clip-rule="nonzero"/></clipPath><clipPath id="47022bb1ac"><rect x="0" width="53" y="0" height="43"/></clipPath><clipPath id="ff37582c32"><path d="M 118 64.753906 L 242 64.753906 L 242 187 L 118 187 Z M 118 64.753906 " clip-rule="nonzero"/></clipPath><mask id="1d2ad01bcb"><g filter="url(#15dba6f7f2)"><rect x="-37.5" width="450" fill="#000000" y="-37.499999" height="449.999989" fill-opacity="0.3"/></g></mask><clipPath id="bc40422129"><path d="M 0.558594 0.753906 L 123.679688 0.753906 L 123.679688 122.960938 L 0.558594 122.960938 Z M 0.558594 0.753906 " clip-rule="nonzero"/></clipPath><clipPath id="7ad8212191"><rect x="0" width="124" y="0" height="123"/></clipPath><mask id="6cce02cc97"><g filter="url(#15dba6f7f2)"><rect x="-37.5" width="450" fill="#000000" y="-37.499999" height="449.999989" fill-opacity="0.7"/></g></mask><clipPath id="b97f4968f6"><path d="M 0.359375 0.121094 L 73.800781 0.121094 L 73.800781 69.71875 L 0.359375 69.71875 Z M 0.359375 0.121094 " clip-rule="nonzero"/></clipPath><clipPath id="9163989b33"><rect x="0" width="74" y="0" height="70"/></clipPath><mask id="274f4d387b"><g filter="url(#15dba6f7f2)"><rect x="-37.5" width="450" fill="#000000" y="-37.499999" height="449.999989" fill-opacity="0.15"/></g></mask><clipPath id="e381e6367e"><path d="M 0.558594 0.761719 L 87.921875 0.761719 L 87.921875 93.640625 L 0.558594 93.640625 Z M 0.558594 0.761719 " clip-rule="nonzero"/></clipPath><clipPath id="37bfadf96a"><rect x="0" width="88" y="0" height="94"/></clipPath><mask id="fe5d512f6f"><g filter="url(#15dba6f7f2)"><rect x="-37.5" width="450" fill="#000000" y="-37.499999" height="449.999989" fill-opacity="0.15"/></g></mask><clipPath id="294fe511be"><path d="M 0.558594 0.398438 L 51.441406 0.398438 L 51.441406 20 L 0.558594 20 Z M 0.558594 0.398438 " clip-rule="nonzero"/></clipPath><clipPath id="a8e7ad7095"><rect x="0" width="52" y="0" height="21"/></clipPath><clipPath id="f5c3de3043"><path d="M 105 204 L 156 204 L 156 243.253906 L 105 243.253906 Z M 105 204 " clip-rule="nonzero"/></clipPath><mask id="9ca021d11b"><g filter="url(#15dba6f7f2)"><rect x="-37.5" width="450" fill="#000000" y="-37.499999" height="449.999989" fill-opacity="0.15"/></g></mask><clipPath id="d00b02a6e8"><path d="M 0.0390625 1 L 48.519531 1 L 48.519531 24.519531 L 0.0390625 24.519531 Z M 0.0390625 1 " clip-rule="nonzero"/></clipPath><clipPath id="f9b8ac99d3"><rect x="0" width="49" y="0" height="25"/></clipPath><mask id="2e4eb6ded1"><g filter="url(#15dba6f7f2)"><rect x="-37.5" width="450" fill="#000000" y="-37.499999" height="449.999989" fill-opacity="0.3"/></g></mask><clipPath id="739c04375d"><path d="M 0.121094 1 L 17.640625 1 L 17.640625 19.480469 L 0.121094 19.480469 Z M 0.121094 1 " clip-rule="nonzero"/></clipPath><clipPath id="665db8d5e8"><rect x="0" width="18" y="0" height="20"/></clipPath><clipPath id="d3f87bd853"><path d="M 109 217 L 156 217 L 156 243.253906 L 109 243.253906 Z M 109 217 " clip-rule="nonzero"/></clipPath><mask id="48b549379d"><g filter="url(#15dba6f7f2)"><rect x="-37.5" width="450" fill="#000000" y="-37.499999" height="449.999989" fill-opacity="0.15"/></g></mask><clipPath id="bebe09f5ca"><path d="M 0.441406 0.679688 L 46.519531 0.679688 L 46.519531 26.253906 L 0.441406 26.253906 Z M 0.441406 0.679688 " clip-rule="nonzero"/></clipPath><clipPath id="7ce1aebf7e"><rect x="0" width="47" y="0" height="27"/></clipPath><clipPath id="2e290a7a06"><path d="M 92.636719 130 L 192 130 L 192 219 L 92.636719 219 Z M 92.636719 130 " clip-rule="nonzero"/></clipPath><mask id="93c2408d25"><g filter="url(#15dba6f7f2)"><rect x="-37.5" width="450" fill="#000000" y="-37.499999" height="449.999989" fill-opacity="0.2"/></g></mask><clipPath id="bbb9d2f813"><path d="M 0.636719 0.078125 L 99 0.078125 L 99 88.878906 L 0.636719 88.878906 Z M 0.636719 0.078125 " clip-rule="nonzero"/></clipPath><clipPath id="12cf1c3db2"><rect x="0" width="100" y="0" height="89"/></clipPath><mask id="50228f68b8"><g filter="url(#15dba6f7f2)"><rect x="-37.5" width="450" fill="#000000" y="-37.499999" height="449.999989" fill-opacity="0.2"/></g></mask><clipPath id="14ff1f08de"><path d="M 1 0.199219 L 81.519531 0.199219 L 81.519531 47 L 1 47 Z M 1 0.199219 " clip-rule="nonzero"/></clipPath><clipPath id="24d668d904"><rect x="0" width="82" y="0" height="47"/></clipPath><mask id="77589a37da"><g filter="url(#15dba6f7f2)"><rect x="-37.5" width="450" fill="#000000" y="-37.499999" height="449.999989" fill-opacity="0.7"/></g></mask><clipPath id="21e31e74f1"><path d="M 0.878906 0.0390625 L 73.121094 0.0390625 L 73.121094 37.480469 L 0.878906 37.480469 Z M 0.878906 0.0390625 " clip-rule="nonzero"/></clipPath><clipPath id="e50ceb8c5a"><rect x="0" width="74" y="0" height="38"/></clipPath><mask id="8e20095652"><g filter="url(#15dba6f7f2)"><rect x="-37.5" width="450" fill="#000000" y="-37.499999" height="449.999989" fill-opacity="0.2"/></g></mask><clipPath id="ae45b40c06"><path d="M 0.199219 0.078125 L 11.71875 0.078125 L 11.71875 20 L 0.199219 20 Z M 0.199219 0.078125 " clip-rule="nonzero"/></clipPath><clipPath id="a2242d2f75"><rect x="0" width="12" y="0" height="20"/></clipPath><mask id="e51d6ec53e"><g filter="url(#15dba6f7f2)"><rect x="-37.5" width="450" fill="#000000" y="-37.499999" height="449.999989" fill-opacity="0.5"/></g></mask><clipPath id="e83803da74"><path d="M 0.441406 0.28125 L 14.601562 0.28125 L 14.601562 26.441406 L 0.441406 26.441406 Z M 0.441406 0.28125 " clip-rule="nonzero"/></clipPath><clipPath id="fe36b681a6"><rect x="0" width="15" y="0" height="27"/></clipPath><mask id="cde38d1c38"><g filter="url(#15dba6f7f2)"><rect x="-37.5" width="450" fill="#000000" y="-37.499999" height="449.999989" fill-opacity="0.2"/></g></mask><clipPath id="3c2dabbf6a"><path d="M 0.679688 1 L 101.480469 1 L 101.480469 62.398438 L 0.679688 62.398438 Z M 0.679688 1 " clip-rule="nonzero"/></clipPath><clipPath id="1d5246dfcd"><rect x="0" width="102" y="0" height="63"/></clipPath><mask id="dfeb9719c6"><g filter="url(#15dba6f7f2)"><rect x="-37.5" width="450" fill="#000000" y="-37.499999" height="449.999989" fill-opacity="0.2"/></g></mask><clipPath id="fe2b13dad7"><path d="M 0.0390625 0.121094 L 24.761719 0.121094 L 24.761719 31.800781 L 0.0390625 31.800781 Z M 0.0390625 0.121094 " clip-rule="nonzero"/></clipPath><clipPath id="7de62b9d9f"><rect x="0" width="25" y="0" height="32"/></clipPath><mask id="f1a80c69b2"><g filter="url(#15dba6f7f2)"><rect x="-37.5" width="450" fill="#000000" y="-37.499999" height="449.999989" fill-opacity="0.2"/></g></mask><clipPath id="1502aa3839"><path d="M 0.800781 0.558594 L 55.761719 0.558594 L 55.761719 25.761719 L 0.800781 25.761719 Z M 0.800781 0.558594 " clip-rule="nonzero"/></clipPath><clipPath id="d85098df5c"><rect x="0" width="56" y="0" height="26"/></clipPath><clipPath id="1c409d6893"><path d="M 250 183 L 282.386719 183 L 282.386719 222 L 250 222 Z M 250 183 " clip-rule="nonzero"/></clipPath><mask id="70eda25a98"><g filter="url(#15dba6f7f2)"><rect x="-37.5" width="450" fill="#000000" y="-37.499999" height="449.999989" fill-opacity="0.2"/></g></mask><clipPath id="f347693711"><path d="M 0.800781 0.359375 L 32.386719 0.359375 L 32.386719 38.519531 L 0.800781 38.519531 Z M 0.800781 0.359375 " clip-rule="nonzero"/></clipPath><clipPath id="e6ff1d40cf"><rect x="0" width="33" y="0" height="39"/></clipPath><clipPath id="705ebc9f0e"><path d="M 259 212 L 282.386719 212 L 282.386719 241 L 259 241 Z M 259 212 " clip-rule="nonzero"/></clipPath><mask id="0c2a1dddcf"><g filter="url(#15dba6f7f2)"><rect x="-37.5" width="450" fill="#000000" y="-37.499999" height="449.999989" fill-opacity="0.2"/></g></mask><clipPath id="8a462fa88c"><path d="M 1 0.640625 L 23.386719 0.640625 L 23.386719 28.480469 L 1 28.480469 Z M 1 0.640625 " clip-rule="nonzero"/></clipPath><clipPath id="5b18436c03"><rect x="0" width="24" y="0" height="29"/></clipPath></defs><path fill="#de6800" d="M 276.332031 183.597656 L 276.332031 183.601562 C 275.167969 189.785156 272.828125 193.785156 269.769531 196.171875 C 255.644531 207.199219 226.125 184 225.738281 183.710938 L 198.117188 123.984375 C 203.53125 116.570312 212.457031 103.867188 224.449219 101.960938 C 229.648438 101.136719 235.433594 102.34375 241.753906 106.894531 C 256.179688 130.054688 269.148438 159 276.328125 183.601562 Z M 276.332031 183.597656 " fill-opacity="1" fill-rule="nonzero"/><g mask="url(#c5fd022511)"><g transform="matrix(1, 0, 0, 1, 224, 101)"><g clip-path="url(#f0b17b8cb8)"><g clip-path="url(#c9051442ea)"><path fill="#b4b4b4" d="M 52.332031 82.597656 L 52.332031 82.601562 C 51.167969 88.785156 48.828125 92.785156 45.769531 95.171875 C 30.449219 42.574219 8.027344 10.726562 0.449219 0.960938 C 5.648438 0.136719 11.433594 1.339844 17.753906 5.890625 C 32.179688 29.050781 45.148438 58 52.328125 82.597656 Z M 52.332031 82.597656 " fill-opacity="1" fill-rule="nonzero"/></g></g></g></g><g mask="url(#328e5f61ac)"><g transform="matrix(1, 0, 0, 1, 198, 114)"><g clip-path="url(#8c8a50c84d)"><g clip-path="url(#fdfb947324)"><path fill="#231f20" d="M 27.738281 69.710938 L 0.117188 9.984375 C 2.085938 7.292969 4.515625 3.898438 7.390625 0.582031 C 13.976562 14.601562 38.800781 66.519531 47.753906 85.234375 C 40.9375 81.199219 28.121094 70.019531 27.738281 69.710938 Z M 27.738281 69.710938 " fill-opacity="1" fill-rule="nonzero"/></g></g></g></g><g mask="url(#3b17879844)"><g transform="matrix(1, 0, 0, 1, 217, 166)"><g clip-path="url(#175b3c3e86)"><g clip-path="url(#018dfe4e7d)"><path fill="#231f20" d="M 59.332031 17.605469 C 52.742188 52.667969 8.355469 17.394531 8.738281 17.710938 L 0.761719 0.457031 C 16.652344 21.335938 44 38.992188 59.332031 17.605469 Z M 59.332031 17.605469 " fill-opacity="1" fill-rule="nonzero"/></g></g></g></g><g clip-path="url(#6961ce3106)"><path fill="#ffbd59" d="M 281.769531 223.816406 C 280.015625 234.601562 270.488281 242.484375 259.566406 242.246094 C 230 241.597656 186.914062 203.035156 186.914062 203.035156 C 189.308594 199.921875 190.878906 196.21875 191.378906 192.269531 C 191.492188 191.414062 191.550781 190.546875 191.558594 189.671875 C 191.609375 183.738281 189.242188 178.316406 180.234375 178.796875 C 179.964844 178.8125 179.699219 178.828125 179.433594 178.855469 C 178.585938 178.933594 177.742188 179.0625 176.914062 179.238281 C 174.617188 179.722656 172.40625 180.582031 170.367188 181.765625 C 169.976562 181.992188 169.589844 182.214844 169.203125 182.429688 C 169.21875 181.855469 170.410156 178.667969 172.074219 174.523438 C 173.207031 171.703125 174.558594 168.441406 175.898438 165.257812 C 175.902344 165.25 175.90625 165.234375 175.914062 165.214844 C 177.203125 162.164062 178.484375 159.1875 179.558594 156.765625 C 181.097656 153.285156 182.214844 150.921875 182.328125 151.042969 C 182.328125 151.042969 182.355469 151.070312 182.414062 151.117188 C 185.429688 153.820312 266.898438 226.4375 276.332031 183.601562 C 276.332031 183.601562 276.332031 183.605469 276.332031 183.613281 C 281.054688 199.78125 283.441406 213.5 281.765625 223.816406 Z M 281.769531 223.816406 " fill-opacity="1" fill-rule="nonzero"/></g><g mask="url(#fa39ccc00a)"><g transform="matrix(1, 0, 0, 1, 168, 150)"><g clip-path="url(#6bde0b47f7)"><g clip-path="url(#9a0ae9aa19)"><path fill="#231f20" d="M 25.789062 10.753906 C 17.363281 12.859375 11.882812 22.023438 11.433594 28.855469 C 11.21875 28.875 11.007812 28.898438 10.796875 28.921875 C 10.585938 28.945312 10.378906 28.976562 10.164062 29.007812 C 9.953125 29.039062 9.746094 29.074219 9.539062 29.113281 C 9.328125 29.152344 9.121094 29.191406 8.914062 29.238281 C 8.625 29.296875 8.339844 29.363281 8.054688 29.4375 C 7.914062 29.476562 7.773438 29.511719 7.632812 29.550781 C 7.492188 29.589844 7.351562 29.628906 7.210938 29.667969 C 7.066406 29.714844 6.929688 29.753906 6.789062 29.800781 C 6.683594 29.835938 6.574219 29.867188 6.46875 29.90625 C 6.019531 30.058594 5.578125 30.222656 5.136719 30.402344 C 5.03125 30.445312 4.925781 30.488281 4.824219 30.535156 C 4.652344 30.605469 4.484375 30.679688 4.316406 30.757812 C 4.183594 30.816406 4.058594 30.878906 3.929688 30.941406 C 3.652344 31.074219 3.378906 31.210938 3.105469 31.355469 C 2.988281 31.417969 2.871094 31.480469 2.753906 31.550781 C 2.628906 31.621094 2.5 31.691406 2.371094 31.765625 C 1.980469 31.988281 1.59375 32.210938 1.207031 32.425781 C 1.207031 32.410156 1.210938 32.386719 1.210938 32.367188 C 1.210938 32.34375 1.21875 32.320312 1.226562 32.289062 C 1.226562 32.261719 1.234375 32.230469 1.242188 32.199219 C 1.25 32.164062 1.257812 32.132812 1.265625 32.089844 L 1.265625 32.085938 C 1.277344 32.046875 1.285156 32.011719 1.296875 31.972656 C 1.480469 31.292969 1.9375 30.011719 2.570312 28.34375 C 2.640625 28.175781 2.707031 28.003906 2.769531 27.828125 C 2.820312 27.699219 2.875 27.5625 2.929688 27.421875 C 2.972656 27.3125 3.015625 27.199219 3.058594 27.085938 C 3.070312 27.0625 3.078125 27.039062 3.085938 27.015625 C 3.160156 26.832031 3.234375 26.636719 3.308594 26.445312 C 3.316406 26.429688 3.324219 26.410156 3.332031 26.386719 C 3.398438 26.214844 3.46875 26.039062 3.539062 25.859375 C 4.570312 23.261719 5.84375 20.15625 7.152344 17.035156 C 7.214844 16.890625 7.273438 16.746094 7.332031 16.601562 C 7.523438 16.152344 7.710938 15.703125 7.902344 15.257812 C 7.992188 15.039062 8.082031 14.824219 8.175781 14.605469 C 8.824219 13.074219 9.46875 11.570312 10.082031 10.148438 C 10.21875 9.84375 10.347656 9.539062 10.476562 9.242188 C 10.578125 9.007812 10.675781 8.78125 10.777344 8.550781 C 10.859375 8.363281 10.941406 8.175781 11.023438 7.992188 C 11.472656 6.96875 11.894531 6.015625 12.277344 5.164062 C 12.3125 5.082031 12.355469 5 12.390625 4.917969 C 12.425781 4.835938 12.460938 4.757812 12.5 4.675781 C 12.570312 4.519531 12.640625 4.363281 12.710938 4.210938 C 12.796875 4.03125 12.875 3.855469 12.949219 3.691406 C 12.988281 3.613281 13.023438 3.53125 13.058594 3.460938 C 13.324219 2.890625 13.554688 2.402344 13.746094 2.023438 C 13.808594 1.898438 13.863281 1.785156 13.917969 1.679688 C 13.964844 1.597656 14.003906 1.523438 14.039062 1.457031 C 14.074219 1.394531 14.101562 1.339844 14.128906 1.292969 C 14.15625 1.246094 14.179688 1.203125 14.207031 1.167969 C 14.21875 1.152344 14.226562 1.136719 14.242188 1.125 C 14.25 1.105469 14.257812 1.097656 14.269531 1.085938 C 14.300781 1.042969 14.320312 1.027344 14.335938 1.039062 L 14.34375 1.050781 C 14.574219 1.253906 18.984375 5.222656 25.792969 10.75 Z M 25.789062 10.753906 " fill-opacity="1" fill-rule="nonzero"/></g></g></g></g><g clip-path="url(#f6f81957fa)"><g mask="url(#d9f11f09b8)"><g transform="matrix(1, 0, 0, 1, 186, 183)"><g clip-path="url(#96b146a2be)"><g clip-path="url(#5c2ae1722f)"><path fill="#231f20" d="M 95.769531 40.816406 C 94.015625 51.601562 84.488281 59.484375 73.566406 59.246094 C 44 58.597656 0.914062 20.035156 0.914062 20.035156 C 3.308594 16.921875 4.878906 13.21875 5.378906 9.269531 C 44.824219 42.867188 102.355469 76.734375 90.332031 0.601562 C 95.054688 16.777344 97.445312 30.5 95.769531 40.816406 Z M 95.769531 40.816406 " fill-opacity="1" fill-rule="nonzero"/></g></g></g></g></g><g mask="url(#6fe9383381)"><g transform="matrix(1, 0, 0, 1, 198, 101)"><g clip-path="url(#89ea1b148e)"><g clip-path="url(#dbf76368ff)"><path fill="#231f20" d="M 43.753906 5.890625 C 19.773438 2.910156 11.296875 27.210938 8.4375 40.976562 L 0.117188 22.984375 C 7.882812 12.355469 22.855469 -9.148438 43.753906 5.894531 Z M 43.753906 5.890625 " fill-opacity="1" fill-rule="nonzero"/></g></g></g></g><g clip-path="url(#242e6122de)"><path fill="#b4b4b4" d="M 241.753906 106.890625 C 220.855469 91.847656 205.882812 113.351562 198.117188 123.984375 C 192.132812 132.179688 186.761719 141.910156 182.332031 151.042969 C 174.738281 166.675781 169.691406 181.019531 169.203125 182.429688 C 143.558594 196.785156 125.839844 188.226562 118.761719 175.285156 C 123.753906 162.515625 130.082031 147.453125 137.324219 132.625 C 154.003906 98.457031 175.511719 65.53125 196.667969 64.753906 C 209.976562 64.75 226.664062 82.660156 241.753906 106.890625 Z M 241.753906 106.890625 " fill-opacity="1" fill-rule="nonzero"/></g><g clip-path="url(#6b3de7bc98)"><g mask="url(#006609e18f)"><g transform="matrix(1, 0, 0, 1, 152, 64)"><g clip-path="url(#399c6e0d99)"><g clip-path="url(#8acb63ea90)"><path fill="#ffffff" d="M 67.304688 13.488281 C 59.707031 31.707031 41.730469 44.511719 20.761719 44.511719 C 13.625 44.511719 6.839844 43.027344 0.6875 40.355469 C 14.269531 18.261719 29.558594 1.3125 44.667969 0.753906 C 51.542969 0.75 59.316406 5.527344 67.304688 13.488281 Z M 67.304688 13.488281 " fill-opacity="1" fill-rule="nonzero"/></g></g></g></g></g><g clip-path="url(#36497310ac)"><g mask="url(#3ffa0154af)"><g transform="matrix(1, 0, 0, 1, 188, 64)"><g clip-path="url(#47022bb1ac)"><g clip-path="url(#fc3bf30c9d)"><path fill="#ffffff" d="M 52.46875 40.851562 C 52.359375 41.164062 52.25 41.476562 52.136719 41.796875 C 43.136719 36.03125 35.273438 37.023438 28.65625 40.804688 C 17.960938 35.539062 9.085938 26.476562 4.242188 14.5625 C 2.621094 10.566406 1.542969 6.480469 0.984375 2.394531 C 3.546875 1.414062 6.109375 0.851562 8.667969 0.753906 C 21.601562 0.75 37.71875 17.65625 52.46875 40.847656 Z M 52.46875 40.851562 " fill-opacity="1" fill-rule="nonzero"/></g></g></g></g></g><g clip-path="url(#ff37582c32)"><g mask="url(#1d2ad01bcb)"><g transform="matrix(1, 0, 0, 1, 118, 64)"><g clip-path="url(#7ad8212191)"><g clip-path="url(#bc40422129)"><path fill="#ffffff" d="M 123.515625 42.515625 C 120.863281 38.371094 97.136719 4.144531 78.234375 12.921875 C 56.128906 23.1875 27.59375 78.285156 12.457031 122.710938 C 7.257812 120.054688 3.320312 115.957031 0.761719 111.289062 C 5.757812 98.519531 12.082031 83.453125 19.324219 68.625 C 36.003906 34.457031 57.511719 1.53125 78.667969 0.753906 C 91.90625 0.75 108.488281 18.472656 123.515625 42.515625 Z M 123.515625 42.515625 " fill-opacity="1" fill-rule="nonzero"/></g></g></g></g></g><g mask="url(#6cce02cc97)"><g transform="matrix(1, 0, 0, 1, 147, 75)"><g clip-path="url(#9163989b33)"><g clip-path="url(#b97f4968f6)"><path fill="#ffffff" d="M 73.730469 8.238281 C 67.5 3.570312 59.507812 -0.914062 51.523438 1.394531 C 46.332031 3.070312 41.429688 7.398438 37.625 11.234375 C 33.214844 15.757812 29.265625 20.816406 25.617188 25.972656 C 18.625 35.898438 12.542969 46.4375 6.859375 57.15625 C 4.679688 61.242188 2.601562 65.378906 0.546875 69.527344 C 0.546875 69.527344 1.976562 66.363281 1.976562 66.363281 C 9.800781 49.578125 18.640625 33.105469 30.125 18.503906 C 32.285156 15.785156 34.601562 13.128906 37.035156 10.65625 C 41.015625 6.726562 45.921875 2.457031 51.347656 0.792969 C 59.519531 -1.445312 67.578125 3.246094 73.730469 8.238281 Z M 73.730469 8.238281 " fill-opacity="1" fill-rule="nonzero"/></g></g></g></g><g mask="url(#274f4d387b)"><g transform="matrix(1, 0, 0, 1, 154, 95)"><g clip-path="url(#37bfadf96a)"><g clip-path="url(#e381e6367e)"><path fill="#231f20" d="M 87.753906 11.890625 C 67.113281 -2.46875 51.820312 18.4375 44.117188 28.984375 C 38.132812 37.179688 32.761719 46.910156 28.332031 56.042969 C 20.738281 71.675781 15.691406 86.019531 15.203125 87.429688 C 10 90.34375 5.125 92.308594 0.597656 93.488281 C 4.171875 85.019531 14.089844 62.082031 20.347656 49.203125 C 24.78125 40.074219 30.148438 30.339844 36.136719 22.144531 C 43.898438 11.511719 63.875 -13.558594 87.75 11.890625 Z M 87.753906 11.890625 " fill-opacity="1" fill-rule="nonzero"/></g></g></g></g><g mask="url(#fe5d512f6f)"><g transform="matrix(1, 0, 0, 1, 118, 170)"><g clip-path="url(#a8e7ad7095)"><g clip-path="url(#294fe511be)"><path fill="#231f20" d="M 51.199219 12.429688 C 25.558594 26.785156 7.839844 18.226562 0.761719 5.285156 C 1.359375 3.753906 1.976562 2.191406 2.617188 0.597656 C 9.183594 15.949219 31.148438 21.765625 51.199219 12.429688 Z M 51.199219 12.429688 " fill-opacity="1" fill-rule="nonzero"/></g></g></g></g><g clip-path="url(#f5c3de3043)"><path fill="#b4b4b4" d="M 155.269531 217.859375 C 145.851562 258.371094 92.371094 248.511719 108.261719 204.023438 C 119.46875 214.578125 135.882812 221.015625 155.269531 217.859375 Z M 155.269531 217.859375 " fill-opacity="1" fill-rule="nonzero"/></g><g mask="url(#9ca021d11b)"><g transform="matrix(1, 0, 0, 1, 107, 203)"><g clip-path="url(#f9b8ac99d3)"><g clip-path="url(#d00b02a6e8)"><path fill="#231f20" d="M 48.269531 14.859375 C 48.265625 14.890625 48.253906 14.917969 48.25 14.949219 C 48.199219 15.164062 48.148438 15.371094 48.097656 15.582031 C 48.070312 15.691406 48.042969 15.796875 48.015625 15.90625 C 47.96875 16.09375 47.917969 16.285156 47.867188 16.472656 C 47.796875 16.734375 47.722656 16.996094 47.648438 17.253906 C 47.5625 17.5625 47.46875 17.871094 47.371094 18.171875 C 47.308594 18.378906 47.242188 18.582031 47.175781 18.785156 C 47.101562 19.007812 47.027344 19.230469 46.945312 19.457031 C 46.890625 19.621094 46.832031 19.777344 46.777344 19.9375 C 46.726562 20.070312 46.679688 20.203125 46.628906 20.332031 C 46.558594 20.523438 46.488281 20.710938 46.414062 20.890625 C 46.359375 21.039062 46.300781 21.183594 46.238281 21.328125 C 46.136719 21.589844 46.027344 21.847656 45.917969 22.105469 C 45.855469 22.242188 45.796875 22.378906 45.734375 22.515625 C 45.582031 22.867188 45.417969 23.214844 45.253906 23.558594 C 45.171875 23.726562 45.089844 23.894531 45.003906 24.0625 C 44.976562 24.121094 44.949219 24.179688 44.917969 24.234375 C 25.574219 24.59375 10.496094 16.519531 0.21875 4.238281 C 0.527344 3.1875 0.875 2.113281 1.265625 1.023438 C 12.171875 11.292969 28.007812 17.667969 46.730469 15.089844 L 46.734375 15.089844 C 47.246094 15.019531 47.757812 14.945312 48.273438 14.859375 Z M 48.269531 14.859375 " fill-opacity="1" fill-rule="nonzero"/></g></g></g></g><g mask="url(#2e4eb6ded1)"><g transform="matrix(1, 0, 0, 1, 105, 203)"><g clip-path="url(#665db8d5e8)"><g clip-path="url(#739c04375d)"><path fill="#ffffff" d="M 17.488281 10.660156 C 14.105469 15.667969 6.585938 19.21875 0.457031 19.210938 C -0.00390625 14.027344 0.792969 7.941406 3.265625 1.023438 C 3.519531 1.265625 3.78125 1.503906 4.039062 1.738281 C 4.074219 1.773438 4.109375 1.800781 4.144531 1.832031 C 4.371094 2.039062 4.597656 2.238281 4.828125 2.4375 C 4.828125 2.441406 4.832031 2.445312 4.832031 2.445312 C 5.054688 2.636719 5.277344 2.828125 5.503906 3.019531 C 5.5625 3.070312 5.628906 3.121094 5.6875 3.171875 C 5.890625 3.347656 6.101562 3.519531 6.3125 3.6875 C 6.402344 3.757812 6.492188 3.832031 6.582031 3.902344 C 6.792969 4.074219 7.003906 4.242188 7.222656 4.40625 C 7.277344 4.449219 7.332031 4.492188 7.382812 4.53125 C 7.628906 4.71875 7.871094 4.90625 8.125 5.089844 C 8.429688 5.3125 8.734375 5.535156 9.042969 5.757812 C 9.308594 5.945312 9.574219 6.132812 9.847656 6.316406 C 9.863281 6.328125 9.878906 6.339844 9.898438 6.351562 C 10.195312 6.554688 10.496094 6.753906 10.796875 6.949219 C 11.101562 7.148438 11.402344 7.34375 11.710938 7.53125 C 12.007812 7.71875 12.3125 7.90625 12.613281 8.082031 C 12.636719 8.101562 12.664062 8.109375 12.6875 8.128906 C 12.957031 8.285156 13.226562 8.445312 13.496094 8.601562 C 13.851562 8.800781 14.214844 9.003906 14.578125 9.203125 C 14.851562 9.347656 15.121094 9.492188 15.394531 9.632812 C 15.792969 9.839844 16.191406 10.042969 16.597656 10.234375 C 16.851562 10.359375 17.109375 10.484375 17.371094 10.605469 C 17.410156 10.625 17.453125 10.644531 17.492188 10.664062 Z M 17.488281 10.660156 " fill-opacity="1" fill-rule="nonzero"/></g></g></g></g><g clip-path="url(#d3f87bd853)"><g mask="url(#48b549379d)"><g transform="matrix(1, 0, 0, 1, 109, 217)"><g clip-path="url(#7ce1aebf7e)"><g clip-path="url(#bebe09f5ca)"><path fill="#231f20" d="M 46.269531 0.859375 C 39.683594 29.195312 11.539062 32.886719 0.652344 17.324219 C 12.089844 23.066406 28.554688 18.5 35.976562 1.664062 C 39.296875 1.695312 42.734375 1.4375 46.269531 0.859375 Z M 46.269531 0.859375 " fill-opacity="1" fill-rule="nonzero"/></g></g></g></g></g><g clip-path="url(#2e290a7a06)"><path fill="#de6800" d="M 191.558594 189.671875 C 191.519531 194.589844 189.824219 199.25 186.917969 203.035156 C 184.996094 205.535156 182.550781 207.652344 179.695312 209.203125 C 171.175781 213.835938 162.988281 216.609375 155.273438 217.859375 C 135.882812 221.015625 119.46875 214.574219 108.265625 204.023438 C 83.035156 180.261719 85.332031 133.382812 138.425781 130.382812 C 135.636719 136.089844 131.882812 144.074219 129.390625 149.710938 C 124.746094 148.734375 108.917969 156.269531 118.761719 175.285156 C 125.949219 188.417969 144.097656 197.039062 170.371094 181.765625 C 173.378906 180.019531 176.761719 178.980469 180.234375 178.796875 C 189.242188 178.316406 191.609375 183.738281 191.558594 189.671875 Z M 191.558594 189.671875 " fill-opacity="1" fill-rule="nonzero"/><g mask="url(#93c2408d25)"><g transform="matrix(1, 0, 0, 1, 92, 130)"><g clip-path="url(#12cf1c3db2)"><g clip-path="url(#bbb9d2f813)"><path fill="#231f20" d="M 98.855469 64.996094 C 98.097656 67.921875 96.75 70.652344 94.914062 73.035156 C 92.996094 75.539062 90.550781 77.65625 87.695312 79.203125 C 79.175781 83.839844 70.988281 86.613281 63.269531 87.863281 C 43.882812 91.019531 27.46875 84.578125 16.261719 74.023438 C -8.964844 50.261719 -6.667969 3.378906 46.425781 0.382812 C 46.136719 0.972656 45.839844 1.582031 45.453125 2.382812 C 45.414062 2.460938 45.378906 2.539062 45.339844 2.621094 C 45.332031 2.636719 45.324219 2.65625 45.316406 2.671875 C 45.222656 2.867188 45.121094 3.078125 45.011719 3.304688 C 44.984375 3.359375 44.957031 3.417969 44.925781 3.476562 C 44.84375 3.652344 44.753906 3.828125 44.664062 4.023438 C 44.605469 4.148438 44.542969 4.277344 44.480469 4.40625 C 44.386719 4.601562 44.289062 4.800781 44.191406 5.015625 C 44.179688 5.027344 44.171875 5.042969 44.167969 5.054688 C -33.796875 14.5 21.910156 123.136719 98.855469 64.996094 Z M 98.855469 64.996094 " fill-opacity="1" fill-rule="nonzero"/></g></g></g></g></g><g mask="url(#50228f68b8)"><g transform="matrix(1, 0, 0, 1, 110, 151)"><g clip-path="url(#24d668d904)"><g clip-path="url(#14ff1f08de)"><path fill="#ffffff" d="M 81.453125 36.441406 C 78.480469 30.347656 66.429688 33.28125 56.671875 38.667969 C 14.828125 66.234375 -16.683594 17.082031 12.492188 0.316406 C 12.480469 0.417969 12.460938 0.53125 12.441406 0.648438 C 11.71875 4.738281 6.101562 19.148438 8.761719 24.285156 C 15.949219 37.417969 34.097656 46.039062 60.371094 30.765625 C 61.351562 30.25 62.316406 29.773438 63.261719 29.355469 C 63.273438 29.347656 63.28125 29.339844 63.292969 29.339844 C 65.5 28.453125 67.847656 27.921875 70.238281 27.796875 C 70.726562 27.769531 71.199219 27.761719 71.648438 27.769531 C 78.4375 27.890625 80.933594 31.765625 81.453125 36.441406 Z M 81.453125 36.441406 " fill-opacity="1" fill-rule="nonzero"/></g></g></g></g><g mask="url(#77589a37da)"><g transform="matrix(1, 0, 0, 1, 110, 161)"><g clip-path="url(#e50ceb8c5a)"><g clip-path="url(#21e31e74f1)"><path fill="#ffffff" d="M 73.027344 23.09375 C 70.980469 23.300781 68.976562 23.785156 67.015625 24.390625 C 62.859375 25.703125 58.898438 27.597656 55.226562 29.9375 C 54.609375 30.3125 53.855469 30.785156 53.230469 31.136719 C 45.195312 35.804688 35.628906 38.457031 26.339844 36.855469 C 15.019531 35.046875 4.832031 26.578125 1.816406 15.40625 C 0.730469 11.40625 0.667969 7.105469 1.871094 3.128906 C 2.1875 2.140625 2.570312 1.183594 3.011719 0.253906 C 2.199219 2.140625 1.667969 4.144531 1.429688 6.183594 C 0.761719 12.296875 2.78125 18.492188 6.316406 23.457031 C 11.011719 30.105469 18.457031 34.695312 26.484375 36 C 35.726562 37.605469 45.203125 34.9375 53.261719 30.40625 C 53.984375 29.988281 54.867188 29.472656 55.589844 29.046875 C 59.140625 26.9375 62.972656 25.285156 66.953125 24.171875 C 68.9375 23.617188 70.972656 23.210938 73.03125 23.09375 Z M 73.027344 23.09375 " fill-opacity="1" fill-rule="nonzero"/></g></g></g></g><g mask="url(#8e20095652)"><g transform="matrix(1, 0, 0, 1, 127, 130)"><g clip-path="url(#a2242d2f75)"><g clip-path="url(#ae45b40c06)"><path fill="#231f20" d="M 11.425781 0.382812 C 11.347656 0.539062 11.273438 0.695312 11.195312 0.855469 C 11.167969 0.902344 11.148438 0.945312 11.121094 0.996094 C 8.820312 5.734375 5.929688 11.859375 3.640625 16.917969 C 3.382812 17.488281 3.125 18.0625 2.871094 18.628906 C 2.789062 18.8125 2.710938 18.996094 2.625 19.175781 C 2.585938 19.265625 2.546875 19.359375 2.507812 19.445312 C 2.46875 19.535156 2.429688 19.625 2.390625 19.710938 C 1.847656 19.597656 1.148438 19.597656 0.355469 19.726562 C 4.164062 12.726562 7.601562 5.9375 8.464844 0.597656 C 9.433594 0.511719 10.421875 0.441406 11.425781 0.382812 Z M 11.425781 0.382812 " fill-opacity="1" fill-rule="nonzero"/></g></g></g></g><path fill="#de6800" d="M 129.390625 149.710938 C 125.410156 158.710938 121.832031 167.433594 118.761719 175.289062 C 108.917969 156.273438 124.746094 148.734375 129.390625 149.710938 Z M 129.390625 149.710938 " fill-opacity="1" fill-rule="nonzero"/><g mask="url(#e51d6ec53e)"><g transform="matrix(1, 0, 0, 1, 115, 149)"><g clip-path="url(#fe36b681a6)"><g clip-path="url(#e83803da74)"><path fill="#231f20" d="M 14.390625 0.710938 C 10.410156 9.710938 6.832031 18.433594 3.761719 26.289062 C -6.082031 7.273438 9.746094 -0.265625 14.390625 0.710938 Z M 14.390625 0.710938 " fill-opacity="1" fill-rule="nonzero"/></g></g></g></g><g mask="url(#cde38d1c38)"><g transform="matrix(1, 0, 0, 1, 175, 150)"><g clip-path="url(#1d5246dfcd)"><g clip-path="url(#3c2dabbf6a)"><path fill="#ffffff" d="M 101.332031 33.605469 C 104.140625 91.007812 38.894531 50.289062 0.898438 15.261719 C 0.902344 15.25 0.910156 15.234375 0.917969 15.214844 C 1.269531 14.421875 5.097656 6.128906 7.414062 1.121094 C 10.429688 3.824219 91.898438 76.441406 101.332031 33.605469 Z M 101.332031 33.605469 " fill-opacity="1" fill-rule="nonzero"/></g></g></g></g><g mask="url(#dfeb9719c6)"><g transform="matrix(1, 0, 0, 1, 167, 183)"><g clip-path="url(#7de62b9d9f)"><g clip-path="url(#fe2b13dad7)"><path fill="#ffffff" d="M 24.558594 6.671875 C 24.542969 8.492188 24.304688 10.277344 23.855469 11.996094 C 23.097656 14.921875 21.75 17.652344 19.914062 20.035156 C 17.996094 22.539062 15.550781 24.65625 12.695312 26.203125 C 8.492188 28.488281 4.371094 30.324219 0.347656 31.742188 C 0.351562 27.703125 1.078125 23.832031 2.410156 20.253906 C 5.914062 10.804688 13.625 3.394531 23.265625 0.289062 C 24.179688 2.027344 24.539062 4.113281 24.558594 6.289062 C 24.5625 6.414062 24.5625 6.542969 24.5625 6.671875 Z M 24.558594 6.671875 " fill-opacity="1" fill-rule="nonzero"/></g></g></g></g><g mask="url(#f1a80c69b2)"><g transform="matrix(1, 0, 0, 1, 136, 178)"><g clip-path="url(#d85098df5c)"><g clip-path="url(#1502aa3839)"><path fill="#ffffff" d="M 55.554688 11.289062 C 50.519531 18.628906 42.589844 23.832031 33.410156 25.253906 C 31.742188 25.515625 30.035156 25.648438 28.296875 25.648438 C 16.878906 25.648438 6.8125 19.859375 0.878906 11.058594 C 9.675781 13.132812 20.964844 11.5625 34.371094 3.769531 C 37.378906 2.019531 40.761719 0.980469 44.234375 0.796875 C 44.726562 0.769531 45.195312 0.761719 45.648438 0.769531 C 50.257812 0.851562 52.890625 2.667969 54.265625 5.289062 C 55.175781 7.027344 55.535156 9.113281 55.554688 11.289062 Z M 55.554688 11.289062 " fill-opacity="1" fill-rule="nonzero"/></g></g></g></g><g clip-path="url(#1c409d6893)"><g mask="url(#70eda25a98)"><g transform="matrix(1, 0, 0, 1, 250, 183)"><g clip-path="url(#e6ff1d40cf)"><g clip-path="url(#f347693711)"><path fill="#ffffff" d="M 32.292969 34.605469 C 29.042969 36.949219 25.042969 38.328125 20.730469 38.328125 C 19.171875 38.328125 17.65625 38.148438 16.199219 37.804688 L 16.195312 37.804688 C 14.894531 37.5 13.648438 37.070312 12.457031 36.523438 C 11.417969 36.046875 10.429688 35.480469 9.503906 34.839844 C 4.320312 31.269531 0.921875 25.289062 0.921875 18.515625 C 0.921875 16.535156 1.214844 14.617188 1.757812 12.808594 C 13.820312 16.011719 23.445312 13.710938 26.332031 0.605469 C 26.332031 0.605469 26.332031 0.609375 26.335938 0.617188 C 29.851562 12.660156 32.070312 23.34375 32.285156 32.269531 C 32.304688 33.0625 32.308594 33.84375 32.296875 34.609375 Z M 32.292969 34.605469 " fill-opacity="1" fill-rule="nonzero"/></g></g></g></g></g><g clip-path="url(#705ebc9f0e)"><g mask="url(#0c2a1dddcf)"><g transform="matrix(1, 0, 0, 1, 259, 212)"><g clip-path="url(#5b18436c03)"><g clip-path="url(#8a462fa88c)"><path fill="#ffffff" d="M 23.292969 5.605469 C 23.257812 7.792969 23.085938 9.867188 22.769531 11.816406 C 21.554688 19.292969 16.609375 25.371094 10.050781 28.316406 C 9.972656 28.289062 9.894531 28.253906 9.816406 28.21875 C 4.765625 26.03125 1.238281 21.003906 1.238281 15.15625 C 1.238281 12.34375 2.050781 9.726562 3.460938 7.523438 C 3.605469 7.289062 3.765625 7.054688 3.925781 6.832031 C 6.511719 3.253906 10.714844 0.925781 15.46875 0.925781 C 18.355469 0.925781 21.042969 1.789062 23.285156 3.265625 C 23.304688 4.058594 23.308594 4.839844 23.296875 5.605469 Z M 23.292969 5.605469 " fill-opacity="1" fill-rule="nonzero"/></g></g></g></g></g><g fill="#de6800" fill-opacity="1"><g transform="translate(122.495076, 289.526407)"><g><path d="M 2 -3.28125 L 6.703125 -16.9375 L 4.859375 -17.109375 L 4.859375 -19.484375 L 11.578125 -19.484375 L 17.546875 -2.578125 L 17.578125 -2.578125 L 19.25 -2.484375 L 19.25 0 L 11.6875 0 L 11.6875 -2.375 L 12.796875 -2.46875 C 13.128906 -2.5 13.351562 -2.570312 13.46875 -2.6875 C 13.59375 -2.8125 13.601562 -3.03125 13.5 -3.34375 L 12.890625 -5.15625 L 6.03125 -5.15625 L 5.15625 -2.578125 L 6.921875 -2.484375 L 6.921875 0 L 0.140625 0 L 0.140625 -2.375 L 1.109375 -2.46875 C 1.523438 -2.5 1.820312 -2.769531 2 -3.28125 Z M 9.46875 -16.203125 L 6.734375 -7.859375 L 12.1875 -7.859375 L 9.546875 -16.203125 Z M 9.46875 -16.203125 "/></g></g></g><g fill="#de6800" fill-opacity="1"><g transform="translate(146.276457, 289.526407)"><g><path d="M 0.9375 0 L 0.9375 -2.375 L 2 -2.46875 C 2.5 -2.5 2.75 -2.769531 2.75 -3.28125 L 2.75 -16.90625 L 1.078125 -17 L 1.078125 -19.484375 L 6.359375 -19.484375 L 14.65625 -6.03125 L 14.703125 -6.03125 L 14.703125 -16.90625 L 12.78125 -17 L 12.78125 -19.484375 L 19.921875 -19.484375 L 19.921875 -17.109375 L 18.875 -17.015625 C 18.40625 -16.984375 18.171875 -16.679688 18.171875 -16.109375 L 18.171875 0 L 14.734375 0 L 6.265625 -13.65625 L 6.21875 -13.65625 L 6.21875 -2.578125 L 8.109375 -2.484375 L 8.109375 0 Z M 0.9375 0 "/></g></g></g><g fill="#de6800" fill-opacity="1"><g transform="translate(171.317101, 289.526407)"><g><path d="M 2.75 -3.421875 L 2.75 -16.90625 L 1.078125 -17 L 1.078125 -19.484375 L 8.109375 -19.484375 L 8.109375 -17.109375 L 7.15625 -17.015625 C 6.582031 -16.960938 6.296875 -16.648438 6.296875 -16.078125 L 6.296875 -9.640625 L 12.28125 -16.90625 L 10.640625 -17 L 10.640625 -19.484375 L 17.484375 -19.484375 L 17.484375 -17.109375 L 16.53125 -17.015625 C 16.15625 -16.984375 15.765625 -16.710938 15.359375 -16.203125 L 11.1875 -11.109375 L 16.375 -2.578125 L 17.9375 -2.484375 L 17.9375 0 L 10.4375 0 L 10.4375 -2.375 L 11.34375 -2.46875 C 11.726562 -2.5 11.921875 -2.65625 11.921875 -2.9375 C 11.921875 -3.050781 11.875 -3.207031 11.78125 -3.40625 L 8.875 -8.40625 L 6.296875 -5.296875 L 6.296875 -2.578125 L 7.96875 -2.484375 L 7.96875 0 L 0.9375 0 L 0.9375 -2.375 L 1.90625 -2.46875 C 2.195312 -2.5 2.410156 -2.578125 2.546875 -2.703125 C 2.679688 -2.835938 2.75 -3.078125 2.75 -3.421875 Z M 2.75 -3.421875 "/></g></g></g><g fill="#de6800" fill-opacity="1"><g transform="translate(193.927089, 289.526407)"><g><path d="M 14.90625 0 L 1 0 L 1 -2.375 L 1.96875 -2.46875 C 2.53125 -2.519531 2.8125 -2.789062 2.8125 -3.28125 L 2.8125 -16.90625 L 1.140625 -17 L 1.140625 -19.484375 L 14.5625 -19.484375 L 14.5625 -14.625 L 11.578125 -14.421875 L 11.578125 -15.59375 C 11.578125 -15.914062 11.523438 -16.144531 11.421875 -16.28125 C 11.328125 -16.425781 11.09375 -16.5 10.71875 -16.5 L 6.390625 -16.5 L 6.390625 -11.484375 L 13.15625 -11.484375 L 13.15625 -8.5 L 6.390625 -8.5 L 6.390625 -3.015625 L 11.109375 -3.015625 C 11.453125 -3.015625 11.671875 -3.085938 11.765625 -3.234375 C 11.867188 -3.378906 11.921875 -3.617188 11.921875 -3.953125 L 11.921875 -5.421875 L 14.90625 -5.21875 Z M 14.90625 0 "/></g></g></g><g fill="#de6800" fill-opacity="1"><g transform="translate(214.399263, 289.526407)"><g><path d="M 12.78125 -16.375 C 12.5625 -16.75 11.757812 -16.9375 10.375 -16.9375 C 8.550781 -16.9375 7.171875 -16.320312 6.234375 -15.09375 C 5.296875 -13.863281 4.828125 -12.082031 4.828125 -9.75 C 4.828125 -4.925781 6.632812 -2.515625 10.25 -2.515625 C 10.3125 -2.515625 10.570312 -2.515625 11.03125 -2.515625 C 11.488281 -2.515625 11.921875 -2.578125 12.328125 -2.703125 C 12.742188 -2.835938 12.988281 -2.972656 13.0625 -3.109375 C 13.144531 -3.242188 13.1875 -3.457031 13.1875 -3.75 L 13.1875 -6.09375 L 16.171875 -5.890625 L 16.171875 -0.828125 C 14.648438 -0.0234375 12.71875 0.375 10.375 0.375 C 7.382812 0.375 5.101562 -0.460938 3.53125 -2.140625 C 1.957031 -3.816406 1.171875 -6.316406 1.171875 -9.640625 C 1.171875 -11.472656 1.429688 -13.070312 1.953125 -14.4375 C 2.484375 -15.8125 3.203125 -16.878906 4.109375 -17.640625 C 5.859375 -19.097656 7.945312 -19.828125 10.375 -19.828125 C 12.320312 -19.828125 14.15625 -19.429688 15.875 -18.640625 L 15.875 -13.65625 L 12.890625 -13.453125 L 12.890625 -15.734375 C 12.890625 -16.023438 12.851562 -16.238281 12.78125 -16.375 Z M 12.78125 -16.375 "/></g></g></g><g fill="#de6800" fill-opacity="1"><g transform="translate(236.423542, 289.526407)"><g><path d="M 14.90625 0 L 1 0 L 1 -2.375 L 1.96875 -2.46875 C 2.53125 -2.519531 2.8125 -2.789062 2.8125 -3.28125 L 2.8125 -16.90625 L 1.140625 -17 L 1.140625 -19.484375 L 14.5625 -19.484375 L 14.5625 -14.625 L 11.578125 -14.421875 L 11.578125 -15.59375 C 11.578125 -15.914062 11.523438 -16.144531 11.421875 -16.28125 C 11.328125 -16.425781 11.09375 -16.5 10.71875 -16.5 L 6.390625 -16.5 L 6.390625 -11.484375 L 13.15625 -11.484375 L 13.15625 -8.5 L 6.390625 -8.5 L 6.390625 -3.015625 L 11.109375 -3.015625 C 11.453125 -3.015625 11.671875 -3.085938 11.765625 -3.234375 C 11.867188 -3.378906 11.921875 -3.617188 11.921875 -3.953125 L 11.921875 -5.421875 L 14.90625 -5.21875 Z M 14.90625 0 "/></g></g></g></svg>